<svg xmlns="http://www.w3.org/2000/svg" xmlns:xlink="http://www.w3.org/1999/xlink" width="940" height="210">
  <style type="text/css">
    .box{{fill:#23272A}}
    .avatar{{width:180;clip-path:url(#avatarPath);}}
    .sidebar{{fill:#090A0B}}
    text{{fill: #FFFFFF;font-family:"Lucida Console","Courier New",monospace;}}
    .title{{font-size: 40px}}
    .stats{{font-size: 14px}}
    .subtitle{{font-size: 25px}}
    #easy-empty{{fill:#294D35}}
    #easy-filled{{fill:#00B8A3}}
    #medium-empty{{fill:#5E4E26}}
    #medium-filled{{fill:#FFC01E}}
    #hard-empty{{fill:#5A302F}}
    #hard-filled{{fill:#EF4743}}
  </style>
  <clipPath id="avatarPath">
    <path
    d="M35,15
      h160
      a10,10 0 0 1 10,10
      v160
      a10,10 0 0 1 -10,10
      h-160
      a10,10 0 0 1 -10,-10
      v-160
      a10,10 0 0 1 10,-10
    z"/>
  </clipPath>
  <path id="bg" class="box"
  d="M15,5
    h910
    a5,5 0 0 1 5,5
    v190
    a5,5 0 0 1 -5,5
    h-910
    v-190
  z"/>
  <path id="bar" class="sidebar"
  d="M15,5
    v200
    a5,5 0 0 1 -5,-5
    v-190
    a5,5 0 0 1 5,-5
  z"/>
  <image id="avatar" class="avatar"
    xlink:href="{avatar}"
    x="25" y="15"/>
  <text class="title" x="220" y="65">{name}</text>
  <text class="subtitle" x="220" y="95">Ranking: {ranking} | Solved: {all_sub}/{all_cnt}</text>
  <g transform="translate(225,180)">
    <g transform="translate(0,0)">
      <text class="stats" x="-5" y="-20">Easy:</text>
      <text class="stats" x="205" y="-5" text-anchor="end">{easy_sub}/{easy_cnt} ({easy_pct}%)</text>
      <path id="easy-empty"
        d="M0,0
        h200
        a5,5 0 0 1 0,10
        h-200
        a5,5 0 0 1 0,-10
      z"/>
      {easy_bar}
    </g>
    <g transform="translate(240,0)">
      <text class="stats" x="-5" y="-20">Medium:</text>
      <text class="stats" x="205" y="-5" text-anchor="end">{medium_sub}/{medium_cnt} ({medium_pct}%)</text>
      <path id="medium-empty"
        d="M0,0
        h200
        a5,5 0 0 1 0,10
        h-200
        a5,5 0 0 1 0,-10
      z"/>
      {medium_bar}
    </g>
    <g transform="translate(480,0)">
      <text class="stats" x="-5" y="-20">Hard:</text>
      <text class="stats" x="205" y="-5" text-anchor="end">{hard_sub}/{hard_cnt} ({hard_pct}%)</text>
      <path id="hard-empty"
        d="M0,0
        h200
        a5,5 0 0 1 0,10
        h-200
        a5,5 0 0 1 0,-10
      z"/>
      {hard_bar}
    </g>
  </g>
  <text text-anchor="end" x="915" y="30">Leetcode Fetcher</text>
</svg>